#!OML:ASF F:\VICON\USERDATA\INSTALL\rory3\rory3.ASF
:FULLY-SPECIFIED
:DEGREES
46
root 0.32373329311665877 17.75917130226015 19.29209225605169 -1.6783651365322936 1.629208683364306 0.5380793545070346
lfemur 14.190519234389894 -10.386216260716793 -23.86966249649729
ltibia 18.76110664666369
lfoot 13.885346384395458 -16.64498954111972
ltoes -20.698957015602705
rfemur -25.118222979733197 4.2916238188497005 21.335713728465137
rtibia 27.089272271207527
rfoot 5.627752403997778 -4.208678646801903
rtoes 1.9085107779527901
lowerback 1.0 -2.1867496485563764 -2.2324915741883515
upperback -0.02206242833137309 -2.321454633694352 2.2164436927305844
thorax -3.959895742030887 -0.9562667976476844 4.491015292700412
lowerneck -15.67597258760462 -1.866921986539353 -1.8838145886076618
upperneck 24.809186780632007 -2.3953258236278723 -1.4470172216662347
head 10.744783010544381 -1.4905446258924284 -0.6155691040521666
lclavicle -9.65231568940096e-16 2.3501653453824017e-14
lhumerus -23.606575143819352 2.1754909435140446 80.527607599308
lradius 27.03023111435136
lwrist 8.09161414729932
lhand -32.28771796188751 19.209032819428778
lfingers nan
lthumb -5.598727346067895 49.25462870785643
rclavicle -1.7489216779347733e-15 2.395788695412581e-14
rhumerus -46.23835924358653 -45.40469326947274 -55.797482338929456
rradius 13.809237944895369
rwrist 25.150554048951392
rhand -18.84935920897589 1.0
rfingers nan
rthumb 7.29531355932522 -4.879862102483732
47
root 0.2611077927818744 17.79506382115559 20.626527698039652 -1.6619154267858345 1.0778200821980144 -0.8522509911145988
lfemur 10.018097249048507 -9.061439797318993 -22.037919887069602
ltibia 27.75671053747337
lfoot 16.324229739457383 -18.832812579546072
ltoes -22.139094912615835
rfemur -23.71434883772753 3.994887151925256 23.954792585360867
rtibia 29.468110001730423
rfoot 7.066781419128832 -0.5018732384542508
rtoes 8.446312301655812
lowerback 1.0 -1.880579271874153 -0.5303060154377279
upperback -0.3780104735090376 -1.8601989990000183 2.7122764123844645
thorax -4.240048949358162 -0.758766666037207 3.972822359664005
lowerneck -15.959885866099643 -1.87920883781994 -1.9473221433425616
upperneck 25.140658694717008 -2.3800679685710318 -1.4634407607646776
head 10.95011632546151 -1.501631522202362 -0.6302816125345995
lclavicle -1.7822007365977582e-14 -3.7550659631200605e-15
lhumerus -24.961828043492268 3.9599575380833496 80.86324040617271
lradius 26.30277340475865
lwrist 6.800188038594332
lhand -31.664906394440088 24.399776207762766
lfingers nan
lthumb -5.010333536242786 54.48699599096203
rclavicle -1.821286080540167e-14 -3.061569188863207e-15
rhumerus -46.99475845631969 -45.79350728762666 -55.04846263134225
rradius 13.16828295425066
rwrist 27.283983723568035
rhand -18.486091095106893 1.0
rfingers nan
rthumb 7.654389512329581 -5.040630437430687
48
root 0.1774109445165553 17.85760413919766 20.121435480739073 -2.186474134426147 0.6051732657095401 -1.9434256728852197
lfemur 5.931860361597195 -7.2987770314995455 -20.063048818059837
ltibia 36.261373139864695
lfoot 20.181332809196935 -21.166316643641395
ltoes -25.6647511336235
rfemur -21.00326201314148 4.108691476894837 26.175029001157988
rtibia 30.647344630536622
rfoot 5.2836889164382175 -0.14030106778096485
rtoes 11.281376643345952
lowerback 1.0 -1.658211706064935 0.45062356466162956
upperback -0.40648742013048333 -1.5178201061197893 3.0329587858254596
thorax -4.433428215619042 -0.6439369580429699 3.7042016118474663
lowerneck -16.30192272410004 -1.8211858193652637 -1.7901065866060046
upperneck 25.1088841219335 -2.297405303334683 -1.583209582552593
head 10.984179446784347 -1.4864812175979547 -0.6828073468431595
lclavicle 1.5725039747326233e-14 4.4843824971262006e-14
lhumerus -26.547079100824398 5.18677378834941 81.09731019799159
lradius 25.52935941934586
lwrist 6.455937620331376
lhand -29.465349036129066 28.546649132896764
lfingers nan
lthumb -2.8978687325464003 58.67555721918221
rclavicle 1.5416520060682157e-14 4.553326606309407e-14
rhumerus -45.9170765700789 -43.015092395048804 -58.027425461315275
rradius 13.783948973045339
rwrist 24.284318869061195
rhand -18.99631161230548 1.0
rfingers nan
rthumb 7.146556180452088 -6.73990338970135
49
root 0.093335566601357 17.93078753057149 20.8709021772856 -2.567235596928354 0.6061399014307514 -3.6645557216645237
lfemur 0.6071614739779196 -7.079418468769256 -17.297344629675166
ltibia 45.43292248535315
lfoot -1.6607866945343277 -20.92314013240467
ltoes -30.778285536502114
rfemur -17.514112825702718 4.289288321356847 29.297669317171284
rtibia 29.784603543279196
rfoot 5.400265619923635 -0.2525697284816104
rtoes 13.72521191943324
lowerback 1.0 -1.4988974020890233 2.0707864191497105
upperback -0.15355961814571986 -1.0808620265815778 3.4410183838027737
thorax -4.560409619686714 -0.5452358868482334 3.075752411651559
lowerneck -16.710930128364566 -1.919018391534292 -1.8650091693230015
upperneck 24.23238070831471 -2.660908302191711 -1.0994074691514382
head 10.714811831287498 -1.5399450449908296 -0.5195581316603362
lclavicle -1.0416486548732657e-15 -3.261717258187882e-15
lhumerus -27.40386116716352 4.997904571923557 81.56786434474695
lradius 24.120941848061516
lwrist 6.385621815198448
lhand -28.76756205835152 28.064103586898266
lfingers nan
lthumb -2.2087507384512577 58.196714548628805
rclavicle -8.297470942472661e-16 -2.2388055336049206e-15
rhumerus -44.095517998679185 -40.4934429828604 -61.21430133628085
rradius 14.438455676768571
rwrist 21.066753682392466
rhand -18.416878814061306 1.0
rfingers nan
rthumb 7.66498568853914 -7.409045302986418
50
root 0.030326587936584826 17.961847913376744 21.821072153092498 -3.093369144331654 0.11549278264385565 -4.667828456575515
lfemur -4.766894682777824 -5.333116494047619 -15.348536408390013
ltibia 54.3907427319144
lfoot 14.20789701065263 -12.173358251357794
ltoes -10.246038581121656
rfemur -14.64187603046046 3.808515460151259 31.611478583719283
rtibia 30.31512220617876
rfoot 4.672735901611796 0.9669631622782617
rtoes 21.28946579512199
lowerback 1.0 -1.1493802988878785 3.017872077201496
upperback 0.09906405297989648 -0.4607428509318876 3.5644766128288516
thorax -4.889315678225444 -0.3136823328534379 2.5554988326678076
lowerneck -16.214298421711085 -2.0448799187669056 -1.7656570105324627
upperneck 23.251563059836684 -2.934960276077027 -1.0422145246332821
head 10.193336407661858 -1.6168075719506767 -0.4992947458999306
lclavicle 3.1867199614988326e-14 4.740952679993881e-14
lhumerus -28.19335085757055 3.8200210219231465 82.3537741524035
lradius 22.695456683158348
lwrist 5.9668878034438375
lhand -29.665953492381313 21.121429632890298
lfingers nan
lthumb -3.0877714526983167 51.19983406525393
rclavicle 3.134594563579804e-14 4.815508617483108e-14
rhumerus -41.68270446556528 -37.14722257176588 -65.0024614036096
rradius 15.32068951342622
rwrist 19.766554067405828
rhand -20.271886278636014 1.0
rfingers nan
rthumb 5.795228261814879 -9.21065350960546
